<svg xmlns="http://www.w3.org/2000/svg" viewBox="0 0 24 24">
  <path fill="black" d="M19.14 12.94c.04-.31.06-.63.06-.94s-.02-.63-.06-.94l2.03-1.58c.18-.14.23-.41.12-.61l-1.92-3.32c-.12-.21-.37-.28-.59-.22l-2.39.96c-.5-.38-1.03-.7-1.62-.94l-.36-2.54c-.03-.23-.23-.4-.47-.4h-3.84c-.24 0-.44.17-.47.4l-.36 2.54c-.59.24-1.13.56-1.62.94l-2.39-.96c-.22-.09-.47.01-.59.22l-1.92 3.32c-.12.21-.07.48.12.61l2.03 1.58c-.04.31-.06.63-.06.94s.02.63.06.94l-2.03 1.58c-.18.14-.23.41-.12.61l1.92 3.32c.12.21.37.28.59.22l2.39-.96c.5.38 1.03.7 1.62.94l.36 2.54c.03.23.23.4.47.4h3.84c.24 0 .44-.17.47-.4l.36-2.54c.59-.24 1.13-.56 1.62-.94l2.39.96c.22.09.47-.01.59-.22l1.92-3.32c.12-.21.07-.48-.12-.61l-2.03-1.58zM12 15.5c-1.93 0-3.5-1.57-3.5-3.5s1.57-3.5 3.5-3.5 3.5 1.57 3.5 3.5-1.57 3.5-3.5 3.5z"/>
</svg>
