<?xml version="1.0" encoding="UTF-8"?><svg id="Layer_1" xmlns="http://www.w3.org/2000/svg" viewBox="0 0 297.71 234.15"><defs><style>.cls-1{fill:#f4b13f;}.cls-2{fill:#b16a44;}.cls-3{fill:#a77428;}.cls-4{fill:#e77e3a;}.cls-5{fill:#fbe756;}</style></defs><path class="cls-3" d="M1.17,234.02c-.18,0-.42.13-.71.09-.17-.02-.32-.22-.32-.46.38,0,.85-.01,1.03.37Z"/><path class="cls-3" d="M297.71,233.58c0,.25.02.53-.27.57s-.54-.12-.73-.12c.19-.37.61-.47.99-.45Z"/><polygon class="cls-2" points="142.59 233.91 101.39 233.92 101.26 209.11 142.72 209.11 142.59 233.91"/><rect class="cls-2" x="31.87" y="138.3" width="42.56" height="21.28" transform="translate(-95.8 202.08) rotate(-89.99)"/><rect class="cls-4" x="10.52" y="138.3" width="42.56" height="21.28" transform="translate(-117.14 180.73) rotate(-89.99)"/><rect class="cls-2" x="191.5" y="148.86" width="21.25" height="42.56"/><rect class="cls-4" x="170.25" y="148.86" width="21.25" height="42.56"/><rect class="cls-2" x="127.55" y="127.6" width="21.36" height="21.34" transform="translate(-.1 276.43) rotate(-89.97)"/><rect class="cls-2" x="233.86" y="191.39" width="21.42" height="21.34" transform="translate(42.41 446.55) rotate(-89.98)"/><rect class="cls-2" x="255.18" y="127.67" width="21.28" height="21.27" transform="translate(127.4 404.06) rotate(-89.97)"/><rect class="cls-2" x="42.51" y="191.49" width="21.28" height="21.27" transform="translate(-149 255.2) rotate(-89.98)"/><path class="cls-5" d="M254.75,42.59c.04.24.22.4.45.44v14.94c-.68.53-.68,1.96,0,2.5-.13.82,0,1.67,0,2.5-.27.74-.95.92-1.87.92l-19.44.02.08,21.14,21.18.07.05-21.21,21.19-.03.14,21.15,21.18.18-.05,21.19-169.97-.03-.08-21.19-21.16-.05-.15,21.24H23.69c-1.29.27-1.86-.34-2.44-.98l.1-20.24,21.29-.22c6.88-.07,13.69.52,21.17.07l-.19-21.02,21.44-.13.14-21.2,42.35-.05.44-21.03,41.94-.12.28,21.15,21.16-.04.03-21.06-20.92-.16-.06-20.81,42.22-.53.06,21.25,21.19.17.18,21.2,20.68-.02ZM191.41,63.81h-21.41v21.33h21.41v-21.33Z"/><path class="cls-1" d="M127.98,21.57l41.87-.65c.48-6.91-.66-13.84.56-20.4l.06,20.81,20.92.16-.03,21.06-21.16.04-.28-21.15-41.94.12Z"/><path class="cls-1" d="M255.19,63.91l-.05,21.21-21.18-.07-.08-21.14,19.44-.02c.93,0,1.61-.18,1.87-.92v.94Z"/><path class="cls-1" d="M63.62,63.98l.19,21.02c-7.48.45-14.3-.14-21.17-.07l-.06-20.97,21.05.02Z"/><path class="cls-1" d="M255.2,60.47c-.68-.53-.68-1.96,0-2.5,0,.84.13,1.65,0,2.5Z"/><path class="cls-1" d="M255.2,43.04c-.23-.04-.42-.21-.45-.44.43-.07.51,0,.45.44Z"/><rect class="cls-1" x="170" y="63.81" width="21.41" height="21.33"/><path class="cls-1" d="M1.17,234.02c-.19-.39-.66-.38-1.03-.37l-.14-127.21h19.67c.89-.01,1.47-.36,1.58-1.05.58.64,1.16,1.25,2.44,1h82.59s.15-21.25.15-21.25l21.16.05.08,21.19,169.97.03.06,127.18c-.39-.02-.8.08-.99.45h-168.24c-.72-.24-1.03-.88-1.03-1.83l.03-19.5h-42.42s-.09,21.06-.09,21.06M127.57,127.58v21.36s21.33.01,21.33.01v-21.36s-21.33-.01-21.33-.01ZM21.23,127.66v42.56s42.56,0,42.56,0v-42.56s-42.56,0-42.56,0ZM255.19,127.66v21.28s21.26,0,21.26,0v-21.28s-21.26,0-21.26,0ZM170.25,148.86v42.56h42.51v-42.56h-42.51ZM233.9,191.35v21.42s21.33,0,21.33,0v-21.42s-21.33,0-21.33,0ZM42.52,191.48v21.28s21.26,0,21.26,0v-21.28s-21.26,0-21.26,0Z"/></svg>