<?xml version="1.0" encoding="UTF-8"?><svg id="Layer_2" xmlns="http://www.w3.org/2000/svg" viewBox="0 0 796.62 617.65"><g id="Layer_1-2"><polygon points="180.16 418.79 180.16 417.6 180.16 397.71 159.08 397.71 159.08 417.6 159.08 418.79 159.08 438.68 178.97 438.68 178.97 457.37 178.97 458.56 178.97 477.25 159.08 477.25 159.08 497.14 140.39 497.14 139.2 497.14 119.31 497.14 119.31 518.22 139.2 518.22 140.39 518.22 159.08 518.22 160.28 518.22 180.16 518.22 180.16 498.33 200.05 498.33 200.05 478.45 200.05 477.25 200.05 458.56 200.05 457.37 200.05 437.48 180.16 437.48 180.16 418.79"/><path d="M776.73,497.14v-19.89h-39.77v-19.89h-79.54v-19.89h-19.89v-79.54h-19.89v-79.54h-19.89v-59.66h-19.89v-19.89h-19.89v-19.89h-19.89v-19.89h-19.89v-19.89h-99.43V39.77h-19.89v-19.89h-19.89V0h-80.74v19.89h-19.89v19.89h-19.89v99.43h-18.69v-19.89h-80.74v19.89h-39.77v19.89h-18.69v-19.89h-19.89V40.96h19.89v-19.89h78.35v19.89h21.08v-21.08h-19.89V0h-80.74v19.89h-19.89v19.89h-19.89v100.62h19.89v19.89h19.89v18.69h-19.89v19.89h-19.89v59.66h-19.89v19.89h-19.89v19.89H0v21.08h39.77v39.77h198.86v59.66h19.89v19.89h19.89v38.58h-19.89v19.89h-19.89v21.08h80.74v-19.89h19.89v-19.89h19.89v-39.77h59.66v-119.31h18.69v119.31h19.89v19.89h19.89v19.89h59.66v18.69h-139.2v21.08h180.16v-19.89h19.89v-19.89h19.89v-19.89h18.69v19.89h99.43v19.89h39.77v58.46h-19.89v19.89h-59.66v19.89h-258.51v21.08h259.71v-19.89h59.66v-19.89h19.89v-19.89h19.89v-60.85h-19.89ZM359.13,180.16h18.69v18.69h-18.69v-18.69ZM379.02,160.28h18.69v18.69h-18.69v-18.69ZM398.9,140.39h18.69v18.69h-18.69v-18.69ZM178.97,219.93h19.89v38.58h-38.58v-38.58h18.69ZM318.17,299.48v18.69h-18.69v-18.69h18.69ZM298.28,319.36v18.69h-18.69v-18.69h18.69ZM477.25,279.59h39.77v18.69h-58.46v-18.69h18.69ZM40.96,299.48h18.69v18.69h-18.69v-18.69ZM239.82,339.25h38.58v18.69h-38.58v-18.69ZM438.68,299.48h18.69v18.69h-18.69v-18.69ZM279.59,119.31V40.96h19.89v-19.89h78.35v19.89h19.89v98.23h-19.89v19.89h-19.89v19.89h-58.46v-19.89h-19.89v-39.77Z"/></g></svg>